<svg xmlns="http://www.w3.org/2000/svg" width="171.433" height="57.37" viewBox="0 0 171.433 57.37">
  <g id="Group_4432" data-name="Group 4432" transform="translate(0.658 0.5)">
    <path id="Subtraction_1" data-name="Subtraction 1" d="M154.405,56.371H0L15.711,0H170.116L154.405,56.37ZM21.837,11.192V47.023H36.383c3.955,0,7.016-1.038,9.1-3.085a10.7,10.7,0,0,0,2.929-7.969,7.776,7.776,0,0,0-1.952-5.3A8.984,8.984,0,0,0,41.831,27.9,7.259,7.259,0,0,0,45.8,25.072a9.015,9.015,0,0,0,1.324-5.088c0-2.915-.791-5.133-2.35-6.592s-3.933-2.2-7.053-2.2Zm108.728-.039V46.984h19.742l1.746-7.609h-12.18V11.153Zm-77.013,0-3.5,35.831H59.31l.72-14.261c.1-2.016.153-4.5.153-7.384h.05a40.848,40.848,0,0,0,1.182,7.181L65.222,46.98h7.811L77.4,32.07a47.27,47.27,0,0,0,1.236-6.734h.05c0,1.935.086,4.357.256,7.2l.873,14.447h8.948L85.473,11.149h-10.9L70.927,24.823a49.888,49.888,0,0,0-1.39,7.3h-.049a48.961,48.961,0,0,0-1.179-6.789l-3.5-14.186Zm54.821,14.856h.049a49.423,49.423,0,0,0,1.183,6.789l3.5,14.186h11.261l3.492-35.827H118.6l-.72,14.254c-.1,2.022-.153,4.506-.153,7.387h-.053a40.5,40.5,0,0,0-1.183-7.184l-3.8-14.457h-7.815l-4.369,14.906a48.02,48.02,0,0,0-1.234,6.735h-.053c0-2-.086-4.418-.257-7.2l-.873-14.443H89.147L92.436,46.98h10.9l3.652-13.673a50.356,50.356,0,0,0,1.387-7.3ZM34.533,39.361h-3.5V32.27H34.43c2.251,0,3.393,1.142,3.393,3.393C37.822,38.117,36.716,39.361,34.533,39.361Zm.153-14.392H31.038V18.751h3.546c2.047,0,3.086.95,3.086,2.825C37.669,23.828,36.666,24.969,34.687,24.969Z" transform="translate(0 0)" fill="#ededed" stroke="rgba(0,0,0,0)" stroke-width="1"/>
  </g>
</svg>
